<svg width="304" height="65" viewBox="0 0 304 65" fill="none" xmlns="http://www.w3.org/2000/svg">
<g clip-path="url(#clip0_2624_27)">
<path d="M51.9587 56.8115L41.3984 40.8987H47.2966L36.681 24.8966H42.52L26.0004 0L9.47873 24.8966H15.3178L4.70226 40.8987H10.6005L0.0419922 56.8115H23.966V65H24.9832H27.0176H28.0349V56.8115H51.9587ZM15.9131 38.0781H10.0169L20.6306 22.0799H14.7915L26.0004 5.18921L37.2073 22.0799H31.3663L41.9838 38.0781H36.0856L46.646 53.9928H27.0176V49.2459L34.9719 40.1013L33.4402 38.7524L27.0176 46.1396V38.5978L33.4324 31.2207L31.9006 29.8738L27.0176 35.4895V21.7685H24.9832V35.4875L20.1003 29.8737L18.5685 31.2206L24.9832 38.5977V46.1376L18.5607 38.7524L17.0309 40.1013L24.9832 49.2459V53.9928H5.35466L15.9131 38.0781Z" fill="black"/>
</g>
<path d="M71.7795 46H66.8576L75.8189 20.5455H81.5114L90.4851 46H85.5632L78.7646 25.7656H78.5657L71.7795 46ZM71.9411 36.0195H85.3643V39.7234H71.9411V36.0195ZM102.464 46H93.8378V20.5455H102.638C105.165 20.5455 107.336 21.055 109.15 22.0742C110.973 23.0851 112.374 24.5393 113.351 26.4368C114.329 28.3343 114.818 30.6046 114.818 33.2479C114.818 35.8994 114.325 38.178 113.339 40.0838C112.361 41.9896 110.948 43.4521 109.101 44.4712C107.261 45.4904 105.049 46 102.464 46ZM98.449 42.0103H102.24C104.013 42.0103 105.492 41.6871 106.677 41.0408C107.862 40.3862 108.753 39.4126 109.349 38.12C109.946 36.8191 110.244 35.1951 110.244 33.2479C110.244 31.3007 109.946 29.6849 109.349 28.4006C108.753 27.108 107.87 26.1426 106.702 25.5046C105.542 24.8583 104.1 24.5352 102.377 24.5352H98.449V42.0103ZM121.237 20.5455L127.862 40.581H128.123L134.735 20.5455H139.806L130.833 46H125.14L116.179 20.5455H121.237ZM143.159 46V20.5455H159.714V24.4109H147.77V31.3214H158.857V35.1868H147.77V42.1346H159.814V46H143.159ZM185.337 20.5455V46H181.235L169.241 28.6616H169.03V46H164.419V20.5455H168.545L180.527 37.8963H180.751V20.5455H185.337ZM189.243 24.4109V20.5455H209.552V24.4109H201.684V46H197.11V24.4109H189.243ZM229.513 20.5455H234.124V37.1754C234.124 38.9983 233.693 40.6017 232.831 41.9854C231.978 43.3692 230.776 44.4505 229.227 45.2294C227.677 46 225.867 46.3853 223.795 46.3853C221.715 46.3853 219.901 46 218.351 45.2294C216.802 44.4505 215.6 43.3692 214.747 41.9854C213.893 40.6017 213.467 38.9983 213.467 37.1754V20.5455H218.078V36.7901C218.078 37.8507 218.31 38.7953 218.774 39.6239C219.246 40.4525 219.909 41.103 220.763 41.5753C221.616 42.0393 222.627 42.2713 223.795 42.2713C224.964 42.2713 225.974 42.0393 226.828 41.5753C227.69 41.103 228.352 40.4525 228.816 39.6239C229.281 38.7953 229.513 37.8507 229.513 36.7901V20.5455ZM239.136 46V20.5455H248.681C250.637 20.5455 252.277 20.8852 253.603 21.5646C254.937 22.2441 255.944 23.197 256.623 24.4233C257.311 25.6413 257.655 27.0624 257.655 28.6864C257.655 30.3188 257.307 31.7357 256.611 32.9371C255.923 34.1303 254.908 35.0542 253.566 35.7088C252.223 36.3551 250.574 36.6783 248.619 36.6783H241.82V32.8501H247.998C249.141 32.8501 250.077 32.6927 250.806 32.3778C251.536 32.0547 252.074 31.5865 252.422 30.9734C252.779 30.3519 252.957 29.5896 252.957 28.6864C252.957 27.7833 252.779 27.0127 252.422 26.3746C252.066 25.7283 251.523 25.2395 250.794 24.908C250.065 24.5683 249.124 24.3984 247.973 24.3984H243.747V46H239.136ZM252.286 34.4659L258.587 46H253.441L247.252 34.4659H252.286ZM261.899 46V20.5455H278.455V24.4109H266.51V31.3214H277.597V35.1868H266.51V42.1346H278.554V46H261.899ZM296.993 27.543C296.877 26.4575 296.388 25.6123 295.526 25.0075C294.672 24.4026 293.562 24.1001 292.195 24.1001C291.234 24.1001 290.409 24.2451 289.722 24.5352C289.034 24.8252 288.508 25.2187 288.143 25.7159C287.779 26.2131 287.592 26.7807 287.584 27.4187C287.584 27.949 287.704 28.4089 287.944 28.7983C288.193 29.1877 288.528 29.5192 288.951 29.7926C289.374 30.0578 289.842 30.2815 290.355 30.4638C290.869 30.6461 291.387 30.7994 291.909 30.9237L294.295 31.5202C295.257 31.744 296.181 32.0464 297.067 32.4276C297.962 32.8087 298.762 33.2893 299.466 33.8693C300.179 34.4493 300.742 35.1495 301.156 35.9698C301.571 36.7901 301.778 37.7513 301.778 38.8533C301.778 40.3448 301.397 41.6581 300.634 42.7933C299.872 43.9202 298.77 44.8027 297.328 45.4407C295.895 46.0704 294.159 46.3853 292.12 46.3853C290.14 46.3853 288.421 46.0787 286.962 45.4656C285.512 44.8524 284.377 43.9575 283.557 42.7809C282.745 41.6043 282.306 40.1708 282.239 38.4805H286.776C286.842 39.3671 287.116 40.1045 287.596 40.6928C288.077 41.2811 288.702 41.7203 289.473 42.0103C290.252 42.3003 291.122 42.4453 292.083 42.4453C293.086 42.4453 293.964 42.2962 294.718 41.9979C295.48 41.6913 296.077 41.2687 296.508 40.7301C296.939 40.1832 297.158 39.5452 297.167 38.8161C297.158 38.1532 296.964 37.6063 296.582 37.1754C296.201 36.7363 295.667 36.3717 294.979 36.0817C294.3 35.7834 293.504 35.5182 292.593 35.2862L289.697 34.5405C287.6 34.0019 285.943 33.1857 284.725 32.092C283.515 30.9899 282.911 29.5275 282.911 27.7045C282.911 26.2048 283.317 24.8915 284.129 23.7646C284.949 22.6377 286.063 21.7635 287.472 21.142C288.881 20.5123 290.476 20.1974 292.257 20.1974C294.063 20.1974 295.646 20.5123 297.005 21.142C298.372 21.7635 299.445 22.6294 300.224 23.7397C301.003 24.8417 301.405 26.1095 301.43 27.543H296.993Z" fill="black"/>
<defs>
<clipPath id="clip0_2624_27">
<rect width="52" height="65" fill="white"/>
</clipPath>
</defs>
</svg>
